<?xml version="1.0" encoding="UTF-8"?>
<svg version="1.1" xmlns="http://www.w3.org/2000/svg" width="500" height="500">
<path d="M0 0 C4.69677178 3.94801106 6.89279683 8.22515847 8.4375 14.125 C8.7337936 18.23446343 8.71770119 22.33444493 8.703125 26.453125 C8.70503845 27.63847839 8.7069519 28.82383179 8.70892334 30.04510498 C8.71028137 32.54309299 8.70661169 35.04108814 8.69824219 37.5390625 C8.68749955 41.37515949 8.6981702 45.21079218 8.7109375 49.046875 C8.70961658 51.47395937 8.7070556 53.90104345 8.703125 56.328125 C8.70717346 57.48016418 8.71122192 58.63220337 8.71539307 59.81915283 C8.70593658 61.41155792 8.70593658 61.41155792 8.69628906 63.03613281 C8.69469788 63.97289856 8.69310669 64.90966431 8.69146729 65.87481689 C8.4375 68.125 8.4375 68.125 6.4375 70.125 C3.3984375 70.3203125 3.3984375 70.3203125 -0.1875 70.25 C-1.37601562 70.23195313 -2.56453125 70.21390625 -3.7890625 70.1953125 C-4.70429688 70.17210937 -5.61953125 70.14890625 -6.5625 70.125 C-7.2225 68.145 -7.8825 66.165 -8.5625 64.125 C-9.284375 64.74375 -10.00625 65.3625 -10.75 66 C-18.63308701 71.95611018 -27.66328782 71.33568615 -37.0625 71 C-43.84323142 69.30481715 -49.77844545 65.02812509 -53.5625 59.125 C-56.28652789 53.24109977 -56.64412581 47.12290804 -54.9453125 40.84375 C-52.0203958 34.11385317 -46.39789941 30.02488267 -39.6875 27.375 C-34.31074385 25.76761311 -28.69230162 25.34934526 -23.12158203 24.85839844 C-18.36780684 24.423897 -14.1131728 23.57952539 -9.5625 22.125 C-9.48807943 18.25513042 -9.51547814 14.8514085 -10.5625 11.125 C-17.92026066 9.05966367 -24.30304226 7.89857434 -31.5625 11.125 C-33.90888137 13.08031781 -35.30122889 14.47182223 -36.4375 17.3125 C-37.5625 19.125 -37.5625 19.125 -40.1875 19.9375 C-44.24840507 20.16310584 -47.56381157 19.92473769 -51.5625 19.125 C-53.5625 16.125 -53.5625 16.125 -53.4375 13.9375 C-52.25673172 10.14217338 -50.8006349 6.42817841 -48.5625 3.125 C-47.5725 2.795 -46.5825 2.465 -45.5625 2.125 C-45.5625 1.465 -45.5625 0.805 -45.5625 0.125 C-32.01659193 -7.40050448 -13.2755464 -9.43390477 0 0 Z M-35.84765625 42.08203125 C-37.90360795 44.5313769 -38.40710888 45.93948197 -38.5625 49.125 C-37.71270525 51.87756244 -37.71270525 51.87756244 -36.5625 54.125 C-35.9025 54.125 -35.2425 54.125 -34.5625 54.125 C-34.5625 54.785 -34.5625 55.445 -34.5625 56.125 C-29.4831526 57.75039117 -24.9619075 57.60755431 -19.9375 55.875 C-14.22705327 52.91402762 -10.85084174 50.26739098 -8.5625 44.125 C-8.31105688 40.37426796 -8.31105688 40.37426796 -8.5625 37.125 C-23.05874327 36.35194438 -23.05874327 36.35194438 -35.84765625 42.08203125 Z " fill="#0C0C0C" transform="translate(301.5625,224.875)"/>
<path d="M0 0 C0 0.66 0 1.32 0 2 C1.32 2.66 2.64 3.32 4 4 C4 4.66 4 5.32 4 6 C4.66 6 5.32 6 6 6 C11.13175676 14.93918919 11.13175676 14.93918919 11 21 C-0.78792342 23.81885125 -0.78792342 23.81885125 -5 22 C-6.70918013 19.83131667 -8.12885778 17.61830882 -9.5078125 15.2265625 C-11.65092109 12.02873032 -13.60087273 10.34400984 -17.3671875 9.41796875 C-24.14375752 8.79519985 -28.31472119 9.22771599 -34.125 13.0625 C-39.57121394 17.93693295 -41.32818806 24.81550096 -42.01953125 31.859375 C-41.98004415 36.18716103 -40.69776136 40.2029521 -39.4375 44.3125 C-39.16808594 45.19550781 -38.89867187 46.07851563 -38.62109375 46.98828125 C-38.41613281 47.65214844 -38.21117187 48.31601562 -38 49 C-37.34 49 -36.68 49 -36 49 C-36 49.66 -36 50.32 -36 51 C-35.34 51 -34.68 51 -34 51 C-34 51.66 -34 52.32 -34 53 C-28.44959361 55.40017574 -22.94835763 55.72584126 -17 55 C-12.86253375 52.93126687 -10.64828058 50.70759281 -8 47 C-7.34 47 -6.68 47 -6 47 C-5.67 45.68 -5.34 44.36 -5 43 C0.07352013 41.82918766 4.928824 41.83362952 10 43 C10.66 43.66 11.32 44.32 12 45 C11.34835476 51.80226176 7.37954128 57.70788595 2.5546875 62.35546875 C-7.62989366 70.70074496 -17.03273406 71.73156036 -30 71 C-40.02598378 69.71858915 -46.82060963 63.27271212 -52.9375 55.5625 C-59.57115093 45.14155191 -59.30780719 31.74051137 -57.53125 19.8671875 C-55.98458559 13.99354526 -52.98207747 8.59214505 -49 4 C-48.34 4 -47.68 4 -47 4 C-47 3.34 -47 2.68 -47 2 C-32.68241435 -8.9361984 -15.14773633 -10.09849089 0 0 Z " fill="#0E0E0E" transform="translate(196,225)"/>
<path d="M0 0 C0.76441406 -0.00515625 1.52882813 -0.0103125 2.31640625 -0.015625 C4.4375 0.25 4.4375 0.25 7.4375 2.25 C7.77807617 4.31298828 7.77807617 4.31298828 7.73046875 6.8203125 C7.72080078 7.71621094 7.71113281 8.61210937 7.70117188 9.53515625 C7.67603516 10.47230469 7.65089844 11.40945312 7.625 12.375 C7.60469727 13.79232422 7.60469727 13.79232422 7.58398438 15.23828125 C7.54856799 17.57576253 7.4947598 19.91295178 7.4375 22.25 C13.0475 22.25 18.6575 22.25 24.4375 22.25 C25.68127393 24.73754786 25.57056235 26.47655301 25.5625 29.25 C25.56636719 30.5803125 25.56636719 30.5803125 25.5703125 31.9375 C25.4375 34.25 25.4375 34.25 24.4375 36.25 C18.8275 36.25 13.2175 36.25 7.4375 36.25 C7.50627545 42.3193381 7.59419255 48.38798056 7.69995117 54.45678711 C7.73322924 56.5218129 7.76125214 58.58693027 7.78393555 60.65209961 C7.81742855 63.61872432 7.86974145 66.58450748 7.92578125 69.55078125 C7.93536613 70.93841423 7.93536613 70.93841423 7.94514465 72.3540802 C7.96493881 73.21474594 7.98473297 74.07541168 8.00512695 74.9621582 C8.01623001 75.71938675 8.02733307 76.4766153 8.03877258 77.25679016 C8.54673649 79.79606539 9.38826512 80.70350448 11.4375 82.25 C14.34452732 82.53816172 14.34452732 82.53816172 17.5 82.3125 C20.72265625 82.16015625 20.72265625 82.16015625 23.4375 82.25 C25.94762963 84.76012963 25.73471609 85.71805237 25.75 89.1875 C25.76675781 90.06277344 25.78351563 90.93804687 25.80078125 91.83984375 C25.36158138 94.75367511 24.71125253 95.44223828 22.4375 97.25 C20.53979492 97.63818359 20.53979492 97.63818359 18.41796875 97.6484375 C17.64259766 97.65230469 16.86722656 97.65617187 16.06835938 97.66015625 C14.85889648 97.64275391 14.85889648 97.64275391 13.625 97.625 C12.83029297 97.63660156 12.03558594 97.64820313 11.21679688 97.66015625 C4.76115413 97.62811832 0.60815671 96.17399118 -4.3125 91.8125 C-7.67132852 87.98716752 -8.815804 85.39097631 -8.78955078 80.29785156 C-8.78939972 79.31713684 -8.78924866 78.33642212 -8.78909302 77.32598877 C-8.77877045 76.27481873 -8.76844788 75.22364868 -8.7578125 74.140625 C-8.7549826 73.05867859 -8.75215271 71.97673218 -8.74923706 70.86199951 C-8.73804609 67.40788696 -8.7129432 63.95403412 -8.6875 60.5 C-8.67746881 58.15755583 -8.6683432 55.81510759 -8.66015625 53.47265625 C-8.63811025 47.73167083 -8.60358755 41.99087944 -8.5625 36.25 C-12.1925 36.25 -15.8225 36.25 -19.5625 36.25 C-20.80627393 33.76245214 -20.69556235 32.02344699 -20.6875 29.25 C-20.69007813 28.363125 -20.69265625 27.47625 -20.6953125 26.5625 C-20.5625 24.25 -20.5625 24.25 -19.5625 22.25 C-15.9325 22.25 -12.3025 22.25 -8.5625 22.25 C-8.5625 15.65 -8.5625 9.05 -8.5625 2.25 C-4.93436945 0.43593472 -3.78554066 -0.02562126 0 0 Z " fill="#0E0E0E" transform="translate(418.5625,197.75)"/>
<path d="M0 0 C1.60898728 2.73751308 1.45091876 4.88843415 1.375 8.0390625 C1.35953125 9.11414063 1.3440625 10.18921875 1.328125 11.296875 C1.125 13.9140625 1.125 13.9140625 0.125 14.9140625 C-1.414472 15.0467756 -2.95697326 15.14498254 -4.5 15.2265625 C-9.72079455 15.72626712 -12.68220518 16.72753844 -16.875 19.9140625 C-23.57097025 28.54833992 -21.92411231 39.81323054 -21.85864258 50.19555664 C-21.76768717 71.69943684 -21.76768717 71.69943684 -23.875 75.9140625 C-26.16641286 75.96790771 -28.45818188 76.00678337 -30.75 76.0390625 C-32.02617187 76.06226563 -33.30234375 76.08546875 -34.6171875 76.109375 C-37.875 75.9140625 -37.875 75.9140625 -39.875 73.9140625 C-40.12896729 70.99157715 -40.12896729 70.99157715 -40.13378906 67.20117188 C-40.1372937 66.5115889 -40.14079834 65.82200592 -40.14440918 65.11152649 C-40.15322829 62.82685345 -40.14737687 60.54248882 -40.140625 58.2578125 C-40.1419716 56.67362407 -40.14391209 55.08943604 -40.14642334 53.50524902 C-40.14937484 50.18298412 -40.14507618 46.86082665 -40.13574219 43.53857422 C-40.12434758 39.27444659 -40.13090692 35.01057071 -40.14288712 30.74645233 C-40.15010505 27.47456964 -40.14781811 24.2027469 -40.14263153 20.93086243 C-40.14129485 19.35834219 -40.14294341 17.78581655 -40.14759064 16.21330261 C-40.15265485 14.01770557 -40.1449475 11.82251946 -40.13378906 9.62695312 C-40.13219788 8.37611938 -40.13060669 7.12528564 -40.12896729 5.83654785 C-39.875 2.9140625 -39.875 2.9140625 -37.875 0.9140625 C-34.6171875 0.71875 -34.6171875 0.71875 -30.75 0.7890625 C-28.82800781 0.81613281 -28.82800781 0.81613281 -26.8671875 0.84375 C-25.38605469 0.87855469 -25.38605469 0.87855469 -23.875 0.9140625 C-23.215 2.5640625 -22.555 4.2140625 -21.875 5.9140625 C-20.988125 5.1303125 -20.10125 4.3465625 -19.1875 3.5390625 C-14.46973694 0.14847303 -5.38722782 -3.12010278 0 0 Z " fill="#0C0C0C" transform="translate(363.875,219.0859375)"/>
<path d="M0 0 C1.0725 0.01417969 2.145 0.02835938 3.25 0.04296875 C4.3225 0.04941406 5.395 0.05585938 6.5 0.0625 C9.25 0.23046875 9.25 0.23046875 11.25 1.23046875 C11.29626195 14.49506084 11.33183788 27.75963387 11.35362434 41.02429008 C11.3640787 47.18305172 11.37826797 53.34175832 11.40087891 59.50048828 C11.42254846 65.43971424 11.43455617 71.37888714 11.43975449 77.31814957 C11.44346086 79.58844972 11.45069805 81.85874684 11.46146011 84.12902451 C11.47589677 87.29945999 11.47798123 90.46967386 11.47705078 93.64013672 C11.48424133 94.5867215 11.49143188 95.53330627 11.49884033 96.50857544 C11.496091 97.36956848 11.49334167 98.23056152 11.49050903 99.11764526 C11.49235262 99.86798475 11.49419621 100.61832424 11.49609566 101.39140129 C11.25 103.23046875 11.25 103.23046875 9.25 105.23046875 C6.5 105.49609375 6.5 105.49609375 3.25 105.48046875 C1.64125 105.48820312 1.64125 105.48820312 0 105.49609375 C-2.75 105.23046875 -2.75 105.23046875 -4.75 103.23046875 C-5.00168228 101.41260529 -5.00168228 101.41260529 -5.00396729 99.16906738 C-5.00960693 98.31937881 -5.01524658 97.46969025 -5.02105713 96.59425354 C-5.01700867 95.66016159 -5.01296021 94.72606964 -5.00878906 93.76367188 C-5.0122937 92.78148178 -5.01579834 91.79929169 -5.01940918 90.78733826 C-5.02823825 87.5287273 -5.02237316 84.27033205 -5.015625 81.01171875 C-5.01697131 78.75492308 -5.01891156 76.49812769 -5.02142334 74.24133301 C-5.0243762 69.50672653 -5.02007173 64.7721954 -5.01074219 60.03759766 C-4.99934761 53.95747124 -5.00590621 47.87752137 -5.01788712 41.79740143 C-5.02510133 37.13583029 -5.0228198 32.47430126 -5.01763153 27.81272888 C-5.01629382 25.57034789 -5.01794697 23.32796313 -5.02259064 21.08558655 C-5.02764864 17.95604265 -5.01995579 14.82678789 -5.00878906 11.69726562 C-5.01283752 10.76317368 -5.01688599 9.82908173 -5.02105713 8.86668396 C-5.01541748 8.01699539 -5.00977783 7.16730682 -5.00396729 6.29187012 C-5.00321323 5.55150261 -5.00245918 4.8111351 -5.00168228 4.04833221 C-4.54647327 0.7604256 -3.12234585 0.26167387 0 0 Z " fill="#111111" transform="translate(222.75,189.76953125)"/>
<path d="M0 0 C2.29141286 -0.05384521 4.58318188 -0.09272087 6.875 -0.125 C8.78925781 -0.15980469 8.78925781 -0.15980469 10.7421875 -0.1953125 C14 0 14 0 16 2 C16.25396729 4.92248535 16.25396729 4.92248535 16.25878906 8.71289062 C16.2622937 9.4024736 16.26579834 10.09205658 16.26940918 10.80253601 C16.27822829 13.08720905 16.27237687 15.37157368 16.265625 17.65625 C16.2669716 19.24043843 16.26891209 20.82462646 16.27142334 22.40881348 C16.27437484 25.73107838 16.27007618 29.05323585 16.26074219 32.37548828 C16.24934758 36.63961591 16.25590692 40.90349179 16.26788712 45.16761017 C16.27510505 48.43949286 16.27281811 51.7113156 16.26763153 54.98320007 C16.26629485 56.55572031 16.26794341 58.12824595 16.27259064 59.70075989 C16.27765485 61.89635693 16.2699475 64.09154304 16.25878906 66.28710938 C16.25640228 68.16335999 16.25640228 68.16335999 16.25396729 70.07751465 C16 73 16 73 14 75 C11.03125 75.30078125 11.03125 75.30078125 7.5 75.3125 C6.3346875 75.32925781 5.169375 75.34601563 3.96875 75.36328125 C2.9890625 75.24339844 2.009375 75.12351562 1 75 C-1.43547862 71.34678207 -1.24795898 69.61782838 -1.24291992 65.26538086 C-1.24481827 64.58540543 -1.24671661 63.90542999 -1.24867249 63.20484924 C-1.25237614 60.95806333 -1.24168285 58.71160092 -1.23046875 56.46484375 C-1.22927669 54.9045058 -1.22882384 53.34416712 -1.2290802 51.78382874 C-1.22751609 48.51461288 -1.21923137 45.24550664 -1.20581055 41.97631836 C-1.18880675 37.78065768 -1.18499666 33.58511733 -1.18575573 29.38942623 C-1.18548416 26.16816555 -1.1800052 22.9469313 -1.17275429 19.7256794 C-1.169567 18.17828128 -1.16760007 16.63088015 -1.16686058 15.08347893 C-1.16469844 12.92400862 -1.1559574 10.76466732 -1.14526367 8.60522461 C-1.14145187 7.37517197 -1.13764008 6.14511932 -1.13371277 4.87779236 C-1 2 -1 2 0 0 Z " fill="#131313" transform="translate(455,220)"/>
<path d="M0 0 C1.1653125 0.00515625 2.330625 0.0103125 3.53125 0.015625 C4.6965625 0.01046875 5.861875 0.0053125 7.0625 0 C10.03125 0.265625 10.03125 0.265625 12.03125 2.265625 C12.28521729 5.18811035 12.28521729 5.18811035 12.29003906 8.97851562 C12.2935437 9.6680986 12.29704834 10.35768158 12.30065918 11.06816101 C12.30947829 13.35283405 12.30362687 15.63719868 12.296875 17.921875 C12.2982216 19.50606343 12.30016209 21.09025146 12.30267334 22.67443848 C12.30562484 25.99670338 12.30132618 29.31886085 12.29199219 32.64111328 C12.28059758 36.90524091 12.28715692 41.16911679 12.29913712 45.43323517 C12.30635505 48.70511786 12.30406811 51.9769406 12.29888153 55.24882507 C12.29754485 56.82134531 12.29919341 58.39387095 12.30384064 59.96638489 C12.30890485 62.16198193 12.3011975 64.35716804 12.29003906 66.55273438 C12.28765228 68.42898499 12.28765228 68.42898499 12.28521729 70.34313965 C12.03125 73.265625 12.03125 73.265625 10.03125 75.265625 C7.0625 75.53125 7.0625 75.53125 3.53125 75.515625 C2.3659375 75.52078125 1.200625 75.5259375 0 75.53125 C-2.96875 75.265625 -2.96875 75.265625 -4.96875 73.265625 C-5.22271729 70.34313965 -5.22271729 70.34313965 -5.22753906 66.55273438 C-5.2310437 65.8631514 -5.23454834 65.17356842 -5.23815918 64.46308899 C-5.24697829 62.17841595 -5.24112687 59.89405132 -5.234375 57.609375 C-5.2357216 56.02518657 -5.23766209 54.44099854 -5.24017334 52.85681152 C-5.24312484 49.53454662 -5.23882618 46.21238915 -5.22949219 42.89013672 C-5.21809758 38.62600909 -5.22465692 34.36213321 -5.23663712 30.09801483 C-5.24385505 26.82613214 -5.24156811 23.5543094 -5.23638153 20.28242493 C-5.23504485 18.70990469 -5.23669341 17.13737905 -5.24134064 15.56486511 C-5.24640485 13.36926807 -5.2386975 11.17408196 -5.22753906 8.97851562 C-5.22594788 7.72768188 -5.22435669 6.47684814 -5.22271729 5.18811035 C-4.86973326 1.12620668 -4.05360462 0.36269094 0 0 Z " fill="#0D0D0D" transform="translate(377.96875,219.734375)"/>
<path d="M0 0 C1.875 1.0625 1.875 1.0625 3 3 C3.6875 6.3125 3.6875 6.3125 3 10 C0.61911455 12.47266562 -1.99276313 14.35145448 -5 16 C-5.66 16 -6.32 16 -7 16 C-7 16.66 -7 17.32 -7 18 C-8.74036494 19.30078823 -10.54581891 20.51488895 -12.375 21.6875 C-17.31724462 24.86965279 -22.02605043 28.2180499 -26.6484375 31.84765625 C-29.82024146 33.40194557 -31.65612805 32.95341804 -35 32 C-37.67158839 29.32841161 -37.9263784 27.75470151 -38 24 C-36.38914239 21.81383611 -35.12418563 20.62625824 -33 19 C-32.26652344 18.43796875 -31.53304687 17.8759375 -30.77734375 17.296875 C-28.45180618 15.57113672 -26.10073713 13.88916319 -23.73046875 12.22558594 C-21.78586683 10.84834248 -19.86265518 9.44334626 -17.9375 8.0390625 C-16.52147984 7.02513817 -15.10481601 6.01211214 -13.6875 5 C-13.01807373 4.50677246 -12.34864746 4.01354492 -11.65893555 3.50537109 C-7.66644795 0.69317166 -5.06406052 -0.72772425 0 0 Z " fill="#121212" transform="translate(65,253)"/>
<path d="M0 0 C4.01608538 0.95296941 6.48509821 2.29745709 9.6875 4.875 C9.6875 5.535 9.6875 6.195 9.6875 6.875 C10.38875 7.1225 11.09 7.37 11.8125 7.625 C15.08264548 9.04680238 17.828622 10.74746288 20.6875 12.875 C20.6875 13.535 20.6875 14.195 20.6875 14.875 C21.450625 15.16375 22.21375 15.4525 23 15.75 C25.6875 16.875 25.6875 16.875 28.6875 18.875 C28.6875 19.535 28.6875 20.195 28.6875 20.875 C30.0075 21.535 31.3275 22.195 32.6875 22.875 C33 26.1875 33 26.1875 32.6875 29.875 C30.5 31.875 30.5 31.875 27.6875 32.875 C23.27572011 32.49874452 20.721526 30.71661704 17.25 28.0625 C14.21668974 25.77112103 11.22227983 23.51776094 8 21.5 C7.236875 20.96375 6.47375 20.4275 5.6875 19.875 C5.6875 19.215 5.6875 18.555 5.6875 17.875 C4.759375 17.6584375 4.759375 17.6584375 3.8125 17.4375 C1.6875 16.875 1.6875 16.875 -0.3125 15.875 C-0.3125 15.215 -0.3125 14.555 -0.3125 13.875 C-1.09625 13.606875 -1.88 13.33875 -2.6875 13.0625 C-5.3125 11.875 -5.3125 11.875 -7.3125 8.875 C-7.125 5.3125 -7.125 5.3125 -6.3125 1.875 C-3.3125 -0.125 -3.3125 -0.125 0 0 Z " fill="#161616" transform="translate(35.3125,210.125)"/>
<path d="M0 0 C2 2 2 2 2.4375 5.375 C2 9 2 9 -0.375 11.4375 C-3 13 -3 13 -5 13 C-5 13.66 -5 14.32 -5 15 C-6.90374355 16.44963959 -8.87467159 17.81184323 -10.875 19.125 C-11.96554688 19.84945312 -13.05609375 20.57390625 -14.1796875 21.3203125 C-17 23 -17 23 -19 23 C-19 23.66 -19 24.32 -19 25 C-21.1953125 26.76171875 -21.1953125 26.76171875 -24.125 28.6875 C-25.07632813 29.33074219 -26.02765625 29.97398437 -27.0078125 30.63671875 C-30.57930675 32.26394002 -32.2836565 32.12121978 -36 31 C-38 29 -38 29 -38.125 25.375 C-38.08375 24.26125 -38.0425 23.1475 -38 22 C-36.68 21.34 -35.36 20.68 -34 20 C-34 19.34 -34 18.68 -34 18 C-32.34285844 16.76169642 -30.61971839 15.61151772 -28.875 14.5 C-23.31651844 10.89360422 -17.91252568 7.12425424 -12.54638672 3.23828125 C-7.67405438 -0.2779209 -5.97658758 -1.36963465 0 0 Z " fill="#141414" transform="translate(116,211)"/>
<path d="M0 0 C2.7734375 1.4609375 2.7734375 1.4609375 5.375 3.375 C6.68597656 4.31472656 6.68597656 4.31472656 8.0234375 5.2734375 C8.67570312 5.84320313 9.32796875 6.41296875 10 7 C10 7.66 10 8.32 10 9 C10.72574219 9.268125 11.45148438 9.53625 12.19921875 9.8125 C14.96864024 10.98670381 17.30919434 12.3394324 19.8125 14 C20.60269531 14.515625 21.39289063 15.03125 22.20703125 15.5625 C22.79871094 16.036875 23.39039063 16.51125 24 17 C24 17.66 24 18.32 24 19 C24.78375 19.2475 25.5675 19.495 26.375 19.75 C29 21 29 21 30.375 22.8125 C31.18742433 25.65598516 30.99838106 27.21879562 30 30 C28.25 31.875 28.25 31.875 26 33 C21.75701455 32.61362358 19.19982971 31.000782 15.8125 28.5 C12.52749532 26.0504742 12.52749532 26.0504742 9 24 C9 23.34 9 22.68 9 22 C8.29875 21.7525 7.5975 21.505 6.875 21.25 C3.60485452 19.82819762 0.858878 18.12753712 -2 16 C-2 15.34 -2 14.68 -2 14 C-2.99 14 -3.98 14 -5 14 C-5 13.34 -5 12.68 -5 12 C-6.32 11.34 -7.64 10.68 -9 10 C-9.29296875 3.9453125 -9.29296875 3.9453125 -9 2 C-5.48231691 -0.34512206 -4.14174537 -0.4419232 0 0 Z " fill="#151515" transform="translate(87,253)"/>
<path d="M0 0 C2.43769163 3.65653744 2.28943265 6.39789852 2.265625 10.625 C2.26753845 11.36830566 2.2694519 12.11161133 2.27142334 12.87744141 C2.27278317 14.44759459 2.26910079 16.0177591 2.26074219 17.58789062 C2.25003945 19.99114233 2.2606439 22.39364654 2.2734375 24.796875 C2.27211587 26.32291832 2.2695534 27.84896117 2.265625 29.375 C2.26967346 30.09381348 2.27372192 30.81262695 2.27789307 31.55322266 C2.24311682 35.25350434 2.10822399 36.83766401 0 40 C-3.25787048 40.92070253 -5.19296594 41.31856608 -8.375 40.0625 C-9.179375 39.5365625 -9.179375 39.5365625 -10 39 C-10 37.68 -10 36.36 -10 35 C-10.66 35 -11.32 35 -12 35 C-12.07441989 30.81912848 -12.12872818 26.6386127 -12.16479492 22.45727539 C-12.1798376 21.03630859 -12.20027704 19.61538787 -12.22631836 18.19458008 C-12.26290347 16.14653114 -12.27977097 14.0990985 -12.29296875 12.05078125 C-12.3086792 10.82012939 -12.32438965 9.58947754 -12.34057617 8.3215332 C-11.97137159 4.72079609 -11.16918163 2.86466457 -9 0 C-5.85135005 -1.57432497 -3.35512575 -0.71895552 0 0 Z " fill="#292929" transform="translate(77,266)"/>
<path d="M0 0 C1.051875 -0.02126953 1.051875 -0.02126953 2.125 -0.04296875 C4 0.1875 4 0.1875 6 2.1875 C6.18750246 4.889043 6.25564881 7.48619292 6.23046875 10.1875 C6.22978142 11.37472656 6.22978142 11.37472656 6.2290802 12.5859375 C6.22605731 14.2604319 6.2181699 15.93492348 6.20581055 17.609375 C6.18757326 20.17718431 6.18530072 22.74463274 6.18554688 25.3125 C6.18063094 26.93750313 6.17480229 28.5625038 6.16796875 30.1875 C6.16685593 30.95835937 6.1657431 31.72921875 6.16459656 32.5234375 C6.11606989 37.95536022 6.11606989 37.95536022 5 40.1875 C-1.42857143 41.47321429 -1.42857143 41.47321429 -4 40.1875 C-4 39.5275 -4 38.8675 -4 38.1875 C-4.66 38.1875 -5.32 38.1875 -6 38.1875 C-6 25.9775 -6 13.7675 -6 1.1875 C-3.77109005 0.07304502 -2.46944894 0.02269714 0 0 Z " fill="#070707" transform="translate(73,189.8125)"/>
<path d="M0 0 C3.63479444 3.01168682 4.06986093 5.71453539 4.5625 10.3125 C4.11063975 14.52986236 3.20947144 15.88450149 0.1875 18.8125 C-2.94140625 19.40625 -2.94140625 19.40625 -6.375 19.3125 C-8.07849609 19.29703125 -8.07849609 19.29703125 -9.81640625 19.28125 C-12.8125 18.8125 -12.8125 18.8125 -14.65234375 17.46875 C-17.24116072 13.77293049 -17.11315293 10.17196744 -16.8125 5.8125 C-15.55794028 2.98974064 -14.52865278 1.34961459 -12.0625 -0.5 C-7.76293115 -1.81375715 -4.14092214 -1.74838935 0 0 Z " fill="#141414" transform="translate(468.8125,190.1875)"/>
<path d="M0 0 C3.95712116 0.05660381 5.47941146 0.21052462 8.9375 2.3125 C11.3912852 6.45855086 11.64450705 9.67244866 10.75 14.375 C9.25 17.375 9.25 17.375 6.75 19.375 C0.70160995 20.96146296 -2.85461657 20.50432239 -8.25 17.375 C-10.10533209 15.03566823 -10.23812436 13.46604658 -10.625 10.5 C-9.79512663 3.5843886 -6.55543277 0.22786264 0 0 Z " fill="#101010" transform="translate(381.25,189.625)"/>
<path d="M0 0 C-0.32145996 0.49854492 -0.64291992 0.99708984 -0.97412109 1.51074219 C-2.37759885 4.91622987 -2.35609237 8.19940705 -2.4140625 11.828125 C-2.43342865 12.57713074 -2.4527948 13.32613647 -2.4727478 14.09783936 C-2.53235716 16.48177836 -2.57885354 18.86576614 -2.625 21.25 C-2.66319701 22.86981231 -2.70224975 24.48960468 -2.7421875 26.109375 C-2.83804313 30.07275406 -2.92214246 34.03622819 -3 38 C-3.33 38 -3.66 38 -4 38 C-4 25.79 -4 13.58 -4 1 C-2 0 -2 0 0 0 Z " fill="#9F9F9F" transform="translate(71,190)"/>
<path d="M0 0 C0.66 0.33 1.32 0.66 2 1 C-1.16952847 4.26008643 -4.39937989 7.22237877 -8 10 C-6.5682479 4.98886765 -4.01554307 3.05530451 0 0 Z " fill="#5D5D5D" transform="translate(256,255)"/>
<path d="M0 0 C0 3 0 3 -2.5 5.6875 C-3.325 6.450625 -4.15 7.21375 -5 8 C-5.66 7.67 -6.32 7.34 -7 7 C-5.625 5 -5.625 5 -4 3 C-3.34 3 -2.68 3 -2 3 C-2 2.34 -2 1.68 -2 1 C-1.34 0.67 -0.68 0.34 0 0 Z " fill="#535353" transform="translate(258,224)"/>
</svg>
